<svg id="图层_1" data-name="图层 1" xmlns="http://www.w3.org/2000/svg" viewBox="0 0 574.49 272.12"><defs><style>.cls-1{fill:#e4dbea;}.cls-2{fill:#bea7ca;}.cls-3{fill:#e2d9e9;}.cls-4{fill:#e9e2ee;}.cls-5{fill:#f5f2f8;}.cls-6{fill:#c8c8c8;}.cls-7{fill:#f8c9c9;}.cls-8{fill:#fef4f8;}.cls-9{fill:#e1eaf7;}.cls-10{fill:#d8d0c4;}</style></defs><title>logo-gucun</title><path class="cls-1" d="M565.4,185.81V90.93l-13-1c2.18-4.5,23.1-5.93,33.81-1.27-2,.58-4.1,1.9-6,1.61-8.13-1.27-9.46,2.63-9.36,9.78q.52,40.53,0,81.06c-.1,7,2,9.68,8.91,8.74,2-.27,4.06.32,6.21.52-.17,1.49,0,2.53-.36,2.83-5,3.92-21.14,1.36-24.62-3.94q-28.79-43.83-57.53-87.68c-1.29-2-2.7-3.87-5.19-7.41-.21,4-.42,6.2-.43,8.4,0,25.82.21,51.64-.15,77.45-.1,7.13,1.17,11.22,9.35,9.85,1.44-.24,3.06.57,4.8.93-3.13,4.71-27.85,5.54-34.2-.16a85.43,85.43,0,0,1,9.54-.8c4.28.1,5.95-1.43,5.92-5.9q-.23-43.8,0-87.58c0-4.92-1.78-6.38-6.37-6a69.49,69.49,0,0,1-8.86-.41l-.41-2.16c1.41-.64,2.76-1.65,4.23-1.86,11.49-1.63,19.7.91,26.54,12.38C524.67,125.84,543,152.17,560.64,179,561.81,180.76,563.07,182.48,565.4,185.81Z" transform="translate(-11.71 -5.67)"/><path class="cls-1" d="M84.9,141c5.68-5.16,29.63-5.56,35.64-.13l-15.88,2v51.6l-3,.25c-.74-3.8-1.48-7.59-2.33-12-2.16,1.37-4,2.34-5.64,3.6-27.93,21.61-72.29,7.64-78-35.9-2.94-22.34,1.5-43,21-57.45,16.34-12.18,38.95-11.63,56.7.91l6.1,4.35c.65-4.58,1.18-8.33,1.76-12.47,5,3.38,5.7,28.41.74,35.44-.7-3.4-.88-5.79-1.7-7.93-1.43-3.79-2.32-8.46-5.07-11-13.91-12.76-30.31-17.37-48-9.65C29.19,100.4,21,116.2,20.37,134.82c-.36,10.46,1.35,22,5.63,31.43,12.88,28.43,50,33.43,71.12,10.39a13.25,13.25,0,0,0,3-7.64c.42-6.72-.15-13.51.23-20.24.31-5.52-1.93-7.35-7.17-6.88C91,142.08,88.71,141.43,84.9,141Z" transform="translate(-11.71 -5.67)"/><path class="cls-1" d="M389.19,89.19c-2.45.42-4.94,1.32-7.36,1.16-4.71-.3-6.39,1.42-6.34,6.18.2,20.25-.19,40.52.24,60.77.42,20.1,14.68,33.69,34.72,34,19.85.28,35.18-13.14,35.88-32.87.74-21,.17-42,.29-62.94,0-3.72-1.38-5.2-5.12-5.07-2.89.09-5.8-.43-9.58-.75,4.23-4.2,25.27-5.17,35-1-2,.6-4,1.65-6,1.75-9.58.47-9.58.38-9.59,10.07,0,18.57.11,37.14-.05,55.71s-10.22,32.66-26.72,38.07c-17.13,5.62-36.07,0-46.75-14-5.84-7.65-7.43-16.62-7.48-25.92-.1-18.33,0-36.66,0-55V90.86l-14.94-.79c2.23-4.59,23.05-6,33.34-3C388.88,87.81,389,88.5,389.19,89.19Z" transform="translate(-11.71 -5.67)"/><path class="cls-1" d="M143.08,90.83,128.53,90,128,88c1.35-.69,2.69-2,4.06-2q13-.28,26,0c1.33,0,2.63,1.29,3.94,2-1.44.83-3,2.55-4.3,2.34-8.16-1.3-9.44,2.69-9.28,9.79.43,18.56,0,37.13.18,55.69.17,21.12,14.73,35.55,35.51,35.49s35.2-14.45,35.33-35.61c.13-19.53,0-39.06,0-58.59,0-1.88-.26-3.76-.43-6.12l-12.93-1c1.91-4.42,21.19-5.89,33.27-3.09l.53,2c-2.63.52-5.31,1.68-7.86,1.44-6.17-.59-7.82,2-7.74,7.84.29,19.52.33,39.06,0,58.58-.31,18.16-9.85,31.44-25.86,37.13A42.24,42.24,0,0,1,152.4,182c-6.15-7.09-8.59-15.52-8.65-24.69-.13-19.28-.07-38.57-.14-57.85C143.6,96.64,143.27,93.82,143.08,90.83Z" transform="translate(-11.71 -5.67)"/><path class="cls-1" d="M336.94,98.16c.88-5,1.52-8.7,2.16-12.39l2.06,0c.51,1.37,1.44,2.73,1.46,4.11.14,8.44.2,16.88,0,25.32,0,1.52-1.48,3-2.27,4.52-.81-1.5-2.45-3.09-2.29-4.47.76-6.44-1.81-10.71-6.77-14.74-26.89-21.85-62.28-11-71.4,22.48-5.43,20-3.27,39,11.64,54.61,15.45,16.24,44.44,18.19,62.37,4.74,1.54-1.16,2.84-2.71,4.5-3.6,1.45-.78,3.25-.87,4.9-1.27-.57,1.57-.69,3.63-1.78,4.63-12.76,11.69-28.07,15.62-44.87,13.4-21.34-2.83-34.81-15.53-41.21-35.62a65.5,65.5,0,0,1,2.38-46.65c12.32-28.82,46.63-38,72.71-19.74C332.43,94.87,334.32,96.27,336.94,98.16Z" transform="translate(-11.71 -5.67)"/><path class="cls-2" d="M70.43,223.73c6.63-4.44,12.86-8.54,19-12.78A4.86,4.86,0,0,0,91,208.19q3.65-15.25,7.12-30.56A3.94,3.94,0,0,0,98,175.1c-3.71-6.68-7.53-13.3-11.46-20.19-6,4-11.84,7.76-17.43,11.77a9,9,0,0,0-3.26,4.58c-2,7.63-3.73,15.35-5.47,23.06a7.23,7.23,0,0,0-.15,3.87C63.47,206.59,66.89,214.92,70.43,223.73Z" transform="translate(-11.71 -5.67)"/><path class="cls-2" d="M58.37,222.59c0-2.45-.12-4.92,0-7.36.13-1.89-.5-2.81-2.37-3.26-4-1-7.93-2.26-11.95-3.14a5.78,5.78,0,0,0-4,.66c-4.5,2.88-8.9,5.93-13.2,9.11a4.63,4.63,0,0,0-1.66,3.21c-.07,5.46,0,10.93.33,16.38,0,.92,1.2,2,2.12,2.56s2.2.36,3.22.76c7.48,2.91,13.49.78,19.86-3.88C56.32,233.58,60.44,230,58.37,222.59Z" transform="translate(-11.71 -5.67)"/><path class="cls-2" d="M69.75,252,71,253.9A76.79,76.79,0,0,0,79.64,256,6.3,6.3,0,0,0,84,254.84c4.42-3.58,8.58-7.47,12.92-11.14,1.27-1.07,1.74-1.92,1-3.64-2.36-5.51-4.48-11.12-6.72-16.68-.28-.69-.66-1.73-1.19-1.88-3.57-1-7.19-1.74-11.54-2.75.68,2.06,1,3.21,1.44,4.32,1.74,4.44,3.42,8.91,5.33,13.29.82,1.89.77,3.06-1,4.47-3.91,3.14-7.55,6.6-11.4,9.82A11.53,11.53,0,0,1,69.75,252Z" transform="translate(-11.71 -5.67)"/><path class="cls-2" d="M92.88,259c4,1,7,1.94,10.2,2.5a4.74,4.74,0,0,0,3.5-.85q6.84-5.9,13.36-12.16a3.49,3.49,0,0,0,.65-3.05c-2-5.55-4.18-11-6.39-16.5-.34-.84-1-1.94-1.78-2.15-3.39-1-6.85-1.66-11-2.61,2.48,6.29,4.64,12,7,17.56.85,2,.71,3.31-1.14,4.81C102.53,250.36,98,254.48,92.88,259Z" transform="translate(-11.71 -5.67)"/><path class="cls-2" d="M70.86,224.94l-11.23,7.71,6.47,11.92c2.94-2.56,5.67-4.8,8.2-7.23a3,3,0,0,0,.42-2.62C73.64,231.61,72.32,228.59,70.86,224.94Z" transform="translate(-11.71 -5.67)"/><path class="cls-2" d="M40.5,208.36c-2.92-8.26-3.59-16.53-10.83-21.74-1.12-.8-1.76-2.67-2-4.15a4.23,4.23,0,0,0-4.22-3.82c-2-.1-3.74,1.37-2.85,3.34.72,1.56,2.71,2.63,4.28,3.69.87.59,2.26.47,3,1.12,1.87,1.58,4,3.14,5.14,5.21,2,3.73,3.34,7.81,4.95,11.75l-.92.39a15.54,15.54,0,0,1-1.56-1.22,20.57,20.57,0,0,0-14.23-6.3c-1.58-.06-3.07-1.49-4.68-1.77a9.63,9.63,0,0,0-4.53.52c-.31.1-.32,2.78,0,2.91a12.75,12.75,0,0,0,4.53.58c.61,0,1.29-1.28,1.78-1.18,4.29.84,9,.12,12.68,3.36C33.82,203.46,36.85,205.56,40.5,208.36Z" transform="translate(-11.71 -5.67)"/><path class="cls-2" d="M140.36,254.88l.29-.65-16-8.67c-.29,1.63-.53,3-.79,4.48Z" transform="translate(-11.71 -5.67)"/><path class="cls-2" d="M70.41,223.65c-3.55-8.82-7-17.16-10.21-25.57a7.26,7.26,0,0,1,.15-3.88c1.75-7.72,3.46-15.45,5.48-23.1a9,9,0,0,1,3.27-4.59c5.6-4,11.41-7.74,17.46-11.79C90.5,161.62,94.32,168.25,98,175a3.88,3.88,0,0,1,.1,2.53Q94.65,192.8,91,208.09a4.93,4.93,0,0,1-1.58,2.77C83.29,215.1,77.05,219.21,70.41,223.65ZM74.62,210c2-1.32,3.84-2.36,5.46-3.69,1.13-.92,2.48-2.1,2.81-3.4,2-8,3.81-16,5.62-24.05a4.07,4.07,0,0,0,0-2.52c-1.52-2.91-3.22-5.73-4.92-8.7-2.67,1.79-5.08,3.22-7.25,5A6.94,6.94,0,0,0,74,176c-1.57,6.14-2.94,12.33-4.32,18.53a5.32,5.32,0,0,0,0,2.88C71.15,201.52,72.86,205.62,74.62,210Z" transform="translate(-11.71 -5.67)"/><path class="cls-2" d="M58.33,222.51c2.07,7.38-2,11-7.59,15.07-6.39,4.67-12.4,6.8-19.89,3.89-1-.4-2.33-.22-3.23-.76s-2.08-1.65-2.13-2.57c-.3-5.46-.4-10.94-.32-16.41a4.63,4.63,0,0,1,1.66-3.22q6.45-4.77,13.22-9.12a5.85,5.85,0,0,1,4-.66c4,.88,8,2.17,12,3.14,1.88.46,2.51,1.38,2.38,3.27C58.21,217.59,58.33,220.06,58.33,222.51Z" transform="translate(-11.71 -5.67)"/><path class="cls-2" d="M69.73,252a11.87,11.87,0,0,0,3.12-1.35c3.86-3.22,7.51-6.69,11.42-9.84,1.74-1.4,1.8-2.58,1-4.47-1.9-4.39-3.59-8.87-5.33-13.32-.44-1.11-.76-2.26-1.45-4.32,4.36,1,8,1.79,11.56,2.76.53.14.91,1.18,1.19,1.88,2.25,5.57,4.37,11.19,6.73,16.71.74,1.72.26,2.56-1,3.64-4.34,3.68-8.51,7.57-12.94,11.15A6.26,6.26,0,0,1,79.63,256,77,77,0,0,1,71,253.88Z" transform="translate(-11.71 -5.67)"/><path class="cls-2" d="M92.9,259c5.15-4.5,9.67-8.63,14.41-12.48,1.85-1.5,2-2.77,1.14-4.81-2.34-5.61-4.5-11.3-7-17.59,4.14.95,7.62,1.64,11,2.61.74.21,1.44,1.31,1.78,2.15,2.22,5.48,4.4,11,6.4,16.53a3.51,3.51,0,0,1-.65,3.06q-6.52,6.27-13.38,12.18a4.76,4.76,0,0,1-3.51.85C100,260.9,96.86,260,92.9,259Z" transform="translate(-11.71 -5.67)"/><path class="cls-2" d="M70.84,224.87c1.47,3.65,2.78,6.68,3.87,9.79a3.07,3.07,0,0,1-.42,2.63c-2.54,2.44-5.27,4.68-8.22,7.24l-6.48-11.94Z" transform="translate(-11.71 -5.67)"/><path class="cls-2" d="M40.43,208.26c-3.65-2.81-6.69-4.91-9.45-7.32-3.72-3.25-8.4-2.53-12.7-3.37-.49-.1-1.17,1.17-1.78,1.18a12.34,12.34,0,0,1-4.54-.58c-.34-.12-.33-2.81,0-2.91a9.69,9.69,0,0,1,4.54-.52c1.62.27,3.1,1.71,4.68,1.77a20.61,20.61,0,0,1,14.26,6.31A16.86,16.86,0,0,0,37,204.05l.93-.4c-1.62-3.94-2.95-8-5-11.76-1.12-2.08-3.28-3.64-5.15-5.22-.78-.65-2.18-.53-3.05-1.12-1.57-1.07-3.56-2.14-4.28-3.7-.89-2,.85-3.45,2.85-3.34a4.24,4.24,0,0,1,4.23,3.82c.27,1.48.91,3.35,2,4.16C36.84,191.7,37.51,200,40.43,208.26Z" transform="translate(-11.71 -5.67)"/><path class="cls-2" d="M140.46,254.85,123.94,250c.26-1.47.5-2.86.79-4.49l16,8.69Z" transform="translate(-11.71 -5.67)"/><path class="cls-3" d="M74.62,210c-1.76-4.4-3.47-8.5-5-12.65a5.32,5.32,0,0,1,0-2.88C71,188.29,72.39,182.1,74,176a6.94,6.94,0,0,1,2.34-3.35c2.17-1.73,4.58-3.16,7.25-5,1.7,3,3.4,5.79,4.92,8.7a4.07,4.07,0,0,1,0,2.52c-1.81,8-3.59,16.07-5.62,24.05-.33,1.3-1.68,2.48-2.81,3.4C78.46,207.66,76.61,208.7,74.62,210Z" transform="translate(-11.71 -5.67)"/><path class="cls-4" d="M408.16,181.48c-16.9-11.3-32.75-21.74-48.37-32.55-2-1.4-3.43-4.47-4-7Q346.45,103,337.62,64c-.47-2.05-.68-4.75.26-6.44,9.46-17,19.19-33.89,29.21-51.44,15.38,10.29,30.16,19.76,44.4,30A23,23,0,0,1,419.8,47.8c5.15,19.46,9.5,39.12,13.94,58.76.72,3.19,1.48,7,.38,9.86C425.88,137.81,417.19,159,408.16,181.48Z" transform="translate(-11.71 -5.67)"/><path class="cls-4" d="M438.88,178.58c0-6.25.31-12.52-.1-18.74-.33-4.82,1.28-7.17,6-8.32,10.2-2.47,20.2-5.75,30.44-8a14.78,14.78,0,0,1,10.11,1.67c11.48,7.34,22.69,15.11,33.65,23.21a11.81,11.81,0,0,1,4.22,8.19c.18,13.91-.07,27.85-.83,41.74-.12,2.32-3.08,5.1-5.42,6.52s-5.6.91-8.21,1.93c-19,7.42-34.34,2-50.58-9.9C444.1,206.57,433.61,197.35,438.88,178.58Z" transform="translate(-11.71 -5.67)"/><path class="cls-4" d="M409.89,253.49l-3.24,4.87c-7.3,1.88-14.53,4.36-21.95,5.38a16.08,16.08,0,0,1-11.09-3c-11.26-9.11-21.86-19-32.91-28.37-3.24-2.74-4.44-4.9-2.57-9.27,6-14,11.4-28.34,17.12-42.5.71-1.76,1.67-4.41,3-4.78,9.09-2.47,18.32-4.44,29.4-7-1.74,5.24-2.57,8.17-3.68,11-4.44,11.32-8.72,22.71-13.57,33.86-2.09,4.82-2,7.81,2.48,11.38,9.95,8,19.23,16.83,29,25C404.06,251.85,407.22,252.39,409.89,253.49Z" transform="translate(-11.71 -5.67)"/><path class="cls-4" d="M351,271.28c-10.07,2.55-17.94,4.93-26,6.37a12.09,12.09,0,0,1-8.93-2.17q-17.44-15-34-31c-1.62-1.56-2.44-5.59-1.65-7.77,5.09-14.14,10.64-28.12,16.28-42,.87-2.14,2.63-4.93,4.54-5.47,8.62-2.46,17.45-4.23,28-6.65-6.32,16-11.82,30.47-17.79,44.73-2.17,5.2-1.8,8.43,2.91,12.25C326.37,249.33,337.85,259.84,351,271.28Z" transform="translate(-11.71 -5.67)"/><path class="cls-4" d="M407.07,184.57l28.61,19.65-16.49,30.37c-7.5-6.52-14.44-12.23-20.89-18.44-1.33-1.28-1.74-4.74-1.07-6.66C400,201.57,403.34,193.86,407.07,184.57Z" transform="translate(-11.71 -5.67)"/><path class="cls-4" d="M484.42,142.33c7.43-21,9.14-42.12,27.6-55.38,2.84-2,4.47-6.8,5.17-10.58,1.18-6.39,5.17-9.44,10.73-9.73,5.11-.26,9.54,3.49,7.26,8.5-1.82,4-6.89,6.7-10.89,9.42-2.21,1.5-5.77,1.19-7.74,2.85-4.77,4-10.26,8-13.1,13.27-5.12,9.48-8.51,19.9-12.62,29.93l2.36,1a41.47,41.47,0,0,0,4-3.12c10-10,21.9-15.46,36.27-16,4-.17,7.8-3.81,11.92-4.52a24.62,24.62,0,0,1,11.53,1.32c.8.27.83,7.1,0,7.42a32.08,32.08,0,0,1-11.53,1.48c-1.56-.05-3.29-3.26-4.55-3-10.92,2.13-22.82.31-32.29,8.57C501.42,129.84,493.71,135.19,484.42,142.33Z" transform="translate(-11.71 -5.67)"/><path class="cls-4" d="M230,260.84l-.73-1.64L270,237.1c.73,4.15,1.35,7.68,2,11.41Z" transform="translate(-11.71 -5.67)"/><path class="cls-4" d="M408.21,181.3c9-22.49,17.76-43.75,26-65.17,1.09-2.84.33-6.69-.39-9.88-4.44-19.67-8.8-39.37-14-58.85a22.88,22.88,0,0,0-8.32-11.69c-14.27-10.24-29.07-19.73-44.48-30-10,17.58-19.78,34.48-29.25,51.53-.95,1.69-.74,4.39-.27,6.45q8.91,39,18.17,78c.61,2.56,2,5.64,4,7C375.4,159.51,391.29,170,408.21,181.3Zm-10.73-34.75c-5.06-3.36-9.77-6-13.89-9.38-2.89-2.36-6.34-5.36-7.18-8.68-5.17-20.32-9.71-40.81-14.32-61.27-.46-2.06-.78-4.71.11-6.42,3.86-7.42,8.2-14.6,12.54-22.15,6.8,4.56,12.93,8.19,18.46,12.59a17.41,17.41,0,0,1,5.95,8.54c4,15.64,7.51,31.43,11,47.2.53,2.36.89,5.19.09,7.34C406.32,124.91,402,135.34,397.48,146.55Z" transform="translate(-11.71 -5.67)"/><path class="cls-4" d="M439,178.39c-5.27,18.8,5.23,28,19.35,38.37,16.27,11.91,31.6,17.35,50.67,9.91,2.61-1,5.94-.54,8.22-1.93s5.31-4.2,5.43-6.53c.76-13.91,1-27.87.83-41.81a11.82,11.82,0,0,0-4.23-8.2c-11-8.11-22.2-15.89-33.7-23.24a14.78,14.78,0,0,0-10.13-1.68c-10.25,2.24-20.27,5.53-30.48,8-4.77,1.16-6.38,3.5-6.06,8.33C439.3,165.85,439,172.13,439,178.39Z" transform="translate(-11.71 -5.67)"/><path class="cls-4" d="M410,253.43c-2.68-1.11-5.84-1.66-8-3.43-9.82-8.21-19.12-17.05-29.09-25.07-4.44-3.58-4.58-6.58-2.48-11.4,4.86-11.17,9.15-22.58,13.59-33.92,1.11-2.83,1.94-5.76,3.69-11-11.1,2.58-20.35,4.54-29.46,7-1.35.37-2.31,3-3,4.79-5.73,14.19-11.14,28.51-17.15,42.57-1.87,4.38-.66,6.54,2.58,9.29,11.07,9.37,21.69,19.29,33,28.41a16.1,16.1,0,0,0,11.11,3c7.44-1,14.67-3.51,22-5.39Z" transform="translate(-11.71 -5.67)"/><path class="cls-4" d="M350.92,271.24c-13.13-11.45-24.63-22-36.72-31.79-4.72-3.83-5.09-7.06-2.91-12.27,6-14.28,11.48-28.76,17.81-44.81-10.56,2.43-19.4,4.2-28,6.66-1.91.55-3.67,3.34-4.54,5.49-5.65,13.95-11.21,27.95-16.31,42.11-.79,2.18,0,6.23,1.66,7.79q16.62,16,34.09,31a12.11,12.11,0,0,0,8.94,2.17C333,276.17,340.83,273.8,350.92,271.24Z" transform="translate(-11.71 -5.67)"/><path class="cls-4" d="M407.12,184.39c-3.74,9.3-7.09,17-9.86,25-.67,1.94-.26,5.4,1.08,6.68,6.46,6.22,13.41,11.94,20.92,18.47l16.51-30.42Z" transform="translate(-11.71 -5.67)"/><path class="cls-4" d="M484.6,142.08c9.3-7.16,17-12.51,24.07-18.65,9.49-8.28,21.4-6.45,32.34-8.59,1.26-.25,3,3,4.56,3a32,32,0,0,0,11.55-1.47c.88-.32.85-7.17,0-7.44a24.85,24.85,0,0,0-11.55-1.32c-4.13.71-7.92,4.36-11.94,4.53-14.39.58-26.29,6-36.33,16.07a42,42,0,0,1-4,3.12l-2.36-1c4.12-10,7.51-20.48,12.64-30,2.84-5.28,8.34-9.28,13.12-13.29,2-1.67,5.54-1.35,7.75-2.86,4-2.72,9.09-5.44,10.91-9.43,2.28-5-2.15-8.78-7.27-8.51-5.57.29-9.57,3.34-10.75,9.74-.7,3.78-2.33,8.55-5.18,10.59C493.75,99.89,492,121,484.6,142.08Z" transform="translate(-11.71 -5.67)"/><path class="cls-4" d="M229.74,260.78l42.1-12.34c-.66-3.74-1.28-7.27-2-11.43L229,259.14Z" transform="translate(-11.71 -5.67)"/><path class="cls-5" d="M397.48,146.55c4.49-11.21,8.84-21.64,12.78-32.23.8-2.15.44-5-.09-7.34-3.51-15.77-7-31.56-11-47.2a17.41,17.41,0,0,0-5.95-8.54c-5.53-4.4-11.66-8-18.46-12.59-4.34,7.55-8.68,14.73-12.54,22.15-.89,1.71-.57,4.36-.11,6.42,4.61,20.46,9.15,41,14.32,61.27.84,3.32,4.29,6.32,7.18,8.68C387.71,140.54,392.42,143.19,397.48,146.55Z" transform="translate(-11.71 -5.67)"/><path class="cls-6" d="M562.4,182.81V87.93l-13-1c2.18-4.5,23.1-5.93,33.81-1.27-2,.58-4.1,1.9-6,1.61-8.13-1.27-9.46,2.63-9.36,9.78q.52,40.53,0,81.06c-.1,7,2,9.68,8.91,8.74,2-.27,4.06.32,6.21.52-.17,1.49,0,2.53-.36,2.83-5,3.92-21.14,1.36-24.62-3.94q-28.79-43.83-57.53-87.68c-1.29-2-2.7-3.87-5.19-7.41-.21,4-.42,6.2-.43,8.4,0,25.82.21,51.64-.15,77.45-.1,7.13,1.17,11.22,9.35,9.85,1.44-.24,3.06.57,4.8.93-3.13,4.71-27.85,5.54-34.2-.16a85.43,85.43,0,0,1,9.54-.8c4.28.1,5.95-1.43,5.92-5.9q-.23-43.8,0-87.58c0-4.92-1.78-6.38-6.37-6a69.49,69.49,0,0,1-8.86-.41l-.41-2.16c1.41-.64,2.76-1.65,4.23-1.86,11.49-1.63,19.7.91,26.54,12.38C521.67,122.84,540,149.17,557.64,176,558.81,177.76,560.07,179.48,562.4,182.81Z" transform="translate(-11.71 -5.67)"/><path class="cls-7" d="M81.9,138c5.68-5.16,29.63-5.56,35.64-.13l-15.88,2v51.6l-3,.25c-.74-3.8-1.48-7.59-2.33-12-2.16,1.37-4,2.34-5.64,3.6-27.93,21.61-72.29,7.64-78-35.9-2.94-22.34,1.5-43,21-57.45,16.34-12.18,38.95-11.63,56.7.91l6.1,4.35c.65-4.58,1.18-8.33,1.76-12.47,5,3.38,5.7,28.41.74,35.44-.7-3.4-.88-5.79-1.7-7.93-1.43-3.79-2.32-8.46-5.07-11-13.91-12.76-30.31-17.37-48-9.65C26.19,97.4,18,113.2,17.37,131.82c-.36,10.46,1.35,22,5.63,31.43,12.88,28.43,50,33.43,71.12,10.39a13.25,13.25,0,0,0,3-7.64c.42-6.72-.15-13.51.23-20.24.31-5.52-1.93-7.35-7.17-6.88C88,139.08,85.71,138.43,81.9,138Z" transform="translate(-11.71 -5.67)"/><path class="cls-8" d="M386.19,86.19c-2.45.42-4.94,1.32-7.36,1.16-4.71-.3-6.39,1.42-6.34,6.18.2,20.25-.19,40.52.24,60.77.42,20.1,14.68,33.69,34.72,34,19.85.28,35.18-13.14,35.88-32.87.74-21,.17-42,.29-62.94,0-3.72-1.38-5.2-5.12-5.07-2.89.09-5.8-.43-9.58-.75,4.23-4.2,25.27-5.17,35-1-2,.6-4,1.65-6,1.75-9.58.47-9.58.38-9.59,10.07,0,18.57.11,37.14-.05,55.71s-10.22,32.66-26.72,38.07c-17.13,5.62-36.07,0-46.75-14-5.84-7.65-7.43-16.62-7.48-25.92-.1-18.33,0-36.66,0-55V87.86l-14.94-.79c2.23-4.59,23.05-6,33.34-3C385.88,84.81,386,85.5,386.19,86.19Z" transform="translate(-11.71 -5.67)"/><path class="cls-9" d="M140.08,87.83,125.53,87,125,85c1.35-.69,2.69-2,4.06-2q13-.28,26,0c1.33,0,2.63,1.29,3.94,2-1.44.83-3,2.55-4.3,2.34-8.16-1.3-9.44,2.69-9.28,9.79.43,18.56,0,37.13.18,55.69.17,21.12,14.73,35.55,35.51,35.49s35.2-14.45,35.33-35.61c.13-19.53,0-39.06,0-58.59,0-1.88-.26-3.76-.43-6.12l-12.93-1c1.91-4.42,21.19-5.89,33.27-3.09l.53,2c-2.63.52-5.31,1.68-7.86,1.44-6.17-.59-7.82,2-7.74,7.84.29,19.52.33,39.06,0,58.58-.31,18.16-9.85,31.44-25.86,37.13A42.24,42.24,0,0,1,149.4,179c-6.15-7.09-8.59-15.52-8.65-24.69-.13-19.28-.07-38.57-.14-57.85C140.6,93.64,140.27,90.82,140.08,87.83Z" transform="translate(-11.71 -5.67)"/><path class="cls-10" d="M333.94,95.16c.88-5,1.52-8.7,2.16-12.39l2.06,0c.51,1.37,1.44,2.73,1.46,4.11.14,8.44.2,16.88,0,25.32,0,1.52-1.48,3-2.27,4.52-.81-1.5-2.45-3.09-2.29-4.47.76-6.44-1.81-10.71-6.77-14.74-26.89-21.85-62.28-11-71.4,22.48-5.43,20-3.27,39,11.64,54.61,15.45,16.24,44.44,18.19,62.37,4.74,1.54-1.16,2.84-2.71,4.5-3.6,1.45-.78,3.25-.87,4.9-1.27-.57,1.57-.69,3.63-1.78,4.63-12.76,11.69-28.07,15.62-44.87,13.4-21.34-2.83-34.81-15.53-41.21-35.62a65.5,65.5,0,0,1,2.38-46.65c12.32-28.82,46.63-38,72.71-19.74C329.43,91.87,331.32,93.27,333.94,95.16Z" transform="translate(-11.71 -5.67)"/></svg>