<?xml version="1.0" standalone="no"?><!DOCTYPE svg PUBLIC "-//W3C//DTD SVG 1.1//EN" "http://www.w3.org/Graphics/SVG/1.1/DTD/svg11.dtd"><svg t="1596443242427" class="icon" viewBox="0 0 1024 1024" version="1.1" xmlns="http://www.w3.org/2000/svg" p-id="3616" xmlns:xlink="http://www.w3.org/1999/xlink" width="32" height="32"><defs><style type="text/css"></style></defs><path d="M546.8672 583.4752c-0.1536 0.2048-14.1568 20.4288-35.2 20.4288-20.352 0-33.2032-18.5856-34.1504-19.968a35.712 35.712 0 0 0-60.4416 38.0416c12.288 19.8144 46.1056 53.3504 94.592 53.3504 48.3072 0 82.5088-33.28 95.104-52.9408a35.5072 35.5072 0 0 0-10.5472-48.8704 35.9168 35.9168 0 0 0-49.3568 9.9584zM900.736 803.6608c-0.7424-0.5376-1.5104-0.8704-2.2528-1.3312l-85.5552-85.5552a35.712 35.712 0 1 0-50.5088 50.5088l67.7888 67.8144c-70.9376 76.9024-180.096 117.4528-318.2592 117.4528-138.5472 0-247.9616-40.8064-318.8992-118.1696l67.0976-67.0976a35.712 35.712 0 1 0-50.5088-50.5088l-90.1888 90.2144c-0.256 0.2304-0.4608 0.5376-0.64 0.7936-0.9472 0.9728-1.6896 1.9968-2.5088 3.072-0.64 0.8448-1.3568 1.6896-1.8944 2.5856-0.64 1.0496-1.152 2.1248-1.6896 3.2256-0.512 1.024-0.9984 1.9968-1.408 3.0464-0.4096 1.0752-0.64 2.176-0.9472 3.3024s-0.64 2.2016-0.7936 3.328c-0.2048 1.1264-0.256 2.2784-0.3584 3.4304-0.1024 1.1264-0.2048 2.2272-0.1536 3.3536 0 1.152 0.2048 2.3296 0.3584 3.4816 0.1024 1.1264 0.256 2.2272 0.4608 3.328 0.256 1.1264 0.64 2.2016 0.9984 3.3024 0.3584 1.1264 0.6912 2.2272 1.2032 3.328 0.4608 1.024 0.9984 1.9968 1.5616 2.9696 0.5888 1.1008 1.2032 2.176 1.9456 3.2256l0.5376 0.9216C199.68 965.12 336.5376 1024 511.9744 1024s312.3456-58.88 395.8528-170.3168a35.7376 35.7376 0 0 0-7.0912-50.0224zM904.2688 223.7952a35.6864 35.6864 0 1 0-60.544 37.888c52.5056 83.9936 80.3072 186.368 80.3072 296.0384 0 45.44-4.8896 87.9616-14.5408 126.336a35.7376 35.7376 0 0 0 69.3248 17.3824c11.0592-44.0832 16.6912-92.4416 16.6912-143.744-0.0256-123.0592-31.5904-238.5408-91.2384-333.9008zM279.5776 149.504c66.304-51.072 146.2016-78.08 231.0912-78.08 85.9904 0 166.7584 27.6736 233.5488 80a35.7632 35.7632 0 0 0 44.0576-56.2432C708.8128 32.9216 612.8128 0 510.6688 0 409.8816 0 314.88 32.128 235.9808 92.928a35.712 35.712 0 0 0 43.5968 56.576zM114.5344 684.0576c-9.6512-38.4-14.5408-80.896-14.5408-126.336 0-110.7712 28.288-213.9392 81.792-298.368a35.712 35.712 0 1 0-60.3648-38.2464c-60.7488 95.8976-92.9024 212.3008-92.9024 336.64 0 51.2768 5.6576 99.6608 16.6912 143.7184a35.7888 35.7888 0 0 0 43.3664 25.9584 35.7376 35.7376 0 0 0 25.9584-43.3664zM327.4752 285.9264c-85.3504 0-154.8032 58.752-154.8032 130.9952 0 72.2176 69.4528 130.9696 154.8032 130.9696s154.8032-58.752 154.8032-130.9696c0-72.2176-69.4528-130.9952-154.8032-130.9952z m0 190.5152c-45.2096 0-83.3536-27.264-83.3536-59.5456 0-32.256 38.144-59.52 83.3536-59.52 45.1584 0 83.3536 27.264 83.3536 59.52 0 32.2816-38.1952 59.5456-83.3536 59.5456zM696.576 285.9264c-85.3504 0-154.8032 58.752-154.8032 130.9952 0 72.2176 69.4528 130.9696 154.8032 130.9696s154.8032-58.752 154.8032-130.9696c0-72.2176-69.4528-130.9952-154.8032-130.9952z m0 190.5152c-45.1584 0-83.3536-27.264-83.3536-59.5456 0-32.256 38.1952-59.52 83.3536-59.52 45.2096 0 83.3536 27.264 83.3536 59.52 0 32.2816-38.144 59.5456-83.3536 59.5456z" p-id="3617" fill="#9f80b9"></path></svg>