<?xml version="1.0" standalone="no"?><!DOCTYPE svg PUBLIC "-//W3C//DTD SVG 1.1//EN" "http://www.w3.org/Graphics/SVG/1.1/DTD/svg11.dtd"><svg t="1596443290665" class="icon" viewBox="0 0 1024 1024" version="1.1" xmlns="http://www.w3.org/2000/svg" p-id="4448" xmlns:xlink="http://www.w3.org/1999/xlink" width="32" height="32"><defs><style type="text/css"></style></defs><path d="M525.1 117.8h-20.8c-5.7 0-10.4 4.6-10.4 10.4v83c0 5.7 4.7 10.4 10.4 10.4h20.8c5.7 0 10.4-4.6 10.4-10.4v-83c0-5.8-4.6-10.4-10.4-10.4zM395.6 552.2H271c-5.7 0-10.4 4.6-10.4 10.4v20.8c0 5.7 4.6 10.4 10.4 10.4h124.5c5.7 0 10.4-4.6 10.4-10.4v-20.8c0.1-5.8-4.6-10.4-10.3-10.4z m0 249.1H271c-5.7 0-10.4 4.6-10.4 10.4v20.8c0 5.7 4.7 10.4 10.4 10.4h124.5c5.7 0 10.4-4.6 10.4-10.4v-20.8c0.1-5.8-4.6-10.4-10.3-10.4z" p-id="4449" fill="#9f80b9"></path><path d="M734.2 409.9c-30.5-27.9-68.1-46.9-109.1-55.5 0.4-3 0.6-6.1 0.6-9.2V275c0-36.8-30-66.8-66.8-66.8h-93.6c-36.8 0-66.8 30-66.8 66.8v70.2c0 3.1 0.2 6.2 0.6 9.2-40.9 8.6-78.5 27.6-109.1 55.5-43.3 39.7-67.1 92.5-67.1 148.8V919c0 31.9 27.5 57.9 61.4 57.9H740c33.9 0 61.4-26 61.4-57.9V558.8c0-56.3-23.9-109.2-67.2-148.9zM438.6 275c0-14.8 12-26.8 26.8-26.8H559c14.8 0 26.8 12 26.8 26.8v70.2c0 1.4-0.1 2.8-0.3 4.2-3.7-0.2-7.4-0.2-11.2-0.2H450.1c-3.7 0-7.5 0.1-11.2 0.2-0.2-1.4-0.3-2.8-0.3-4.2V275z m322.8 644.1c0 9.9-9.6 17.9-21.4 17.9H284.4c-11.8 0-21.4-8-21.4-17.9V717.4c1.8 2.1 4.5 3.5 7.6 3.5h160.7c5.5 0 10-4.5 10-10v-20.1c0-5.5-4.5-10-10-10H270.6c-3 0-5.7 1.3-7.6 3.5V558.8c0-83.5 66.8-153 154.5-167C482 379 536 379 606.9 391.7c87.7 14 154.5 83.6 154.5 167.1v360.3zM443.9 137.1c10.1-8.9 31.3-8.4 37.9-7.6l1.4 0.2h90.6v-40h-88c-8.6-1-44.3-3.5-68.1 17.2-9.2 8-20.1 22.7-20.1 47.4h40c0-10.5 3.6-14.9 6.3-17.2z" p-id="4450" fill="#9f80b9"></path></svg>