<?xml version="1.0" standalone="no"?><!DOCTYPE svg PUBLIC "-//W3C//DTD SVG 1.1//EN" "http://www.w3.org/Graphics/SVG/1.1/DTD/svg11.dtd"><svg t="1596443310033" class="icon" viewBox="0 0 1024 1024" version="1.1" xmlns="http://www.w3.org/2000/svg" p-id="5235" xmlns:xlink="http://www.w3.org/1999/xlink" width="32" height="32"><defs><style type="text/css"></style></defs><path d="M682.71104 652.56448l-2.15552-1.36704c-1.40288-0.896-10.00448-6.19008-12.60544-7.82848a258.40128 258.40128 0 0 1-14.08-9.43104c-55.7056-40.21248-81.38752-107.47392-77.53216-246.31296 5.45792-196.608 91.52-301.01504 213.14048-302.27456l3.81952-0.02048c11.09504-0.08704 22.19008-0.10752 33.28-0.06144l4.58752 0.02048a42.8032 42.8032 0 0 1 42.78784 42.66496l0.6656 746.624c-0.01536 35.3792-28.68736 64.06144-64.06656 64.09216h-63.7184c-35.29216 0.12288-64-28.37504-64.128-63.66208V652.56448zM298.66496 128.08704v277.248a21.33504 21.33504 0 0 1-42.66496 0V128.10752H191.95904l-0.70656 341.54496c-0.06144 27.52 10.38848 55.12704 27.62752 77.46048 13.88544 17.98656 30.24896 29.22496 37.05344 29.22496a21.32992 21.32992 0 0 1 21.33504 21.248l0.74752 236.56448c-0.0512 34.73408 28.06784 62.92992 62.80192 62.98624l0.9472-0.01024c35.44576-0.65024 63.83616-29.568 63.83104-65.01888l-0.74752-234.368a21.34016 21.34016 0 0 1 21.248-21.42208h0.08704c32 0 62.464-46.38208 62.76096-106.79296L490.624 128l-63.95904 0.02048v277.30944a21.33504 21.33504 0 0 1-42.66496 0V128.04096l-85.33504 0.04608zM793.64096 128h-3.712c-96.512 1.00352-166.06208 85.39648-170.94144 260.77696-3.50208 125.91104 16.9984 179.62496 59.85792 210.56 3.50208 2.51392 7.22944 4.992 11.84256 7.88992 2.41152 1.54112 10.92096 6.784 12.49792 7.78752a225.8688 225.8688 0 0 1 13.44 8.96l8.74496 6.4v244.29056c0 11.8784 9.45664 21.32992 21.46304 21.32992h63.7184c11.8016 0 21.42208-9.64096 21.4016-21.376L830.976 127.95904h-4.56704a2333.8496 2333.8496 0 0 0-32.768 0.04096zM235.35104 834.2784l-0.70656-219.72992c-42.94144-17.30048-86.18496-82.2784-86.05696-144.98304l0.70144-341.54496a42.62912 42.62912 0 0 1 42.56256-42.69056h298.81344a42.56256 42.56256 0 0 1 42.60352 42.85952l-1.71008 341.54496c-0.33792 71.12704-34.87744 132.352-84.00896 146.28352l0.70656 215.98208c0.19456 58.69056-47.21152 106.98752-105.87648 107.82208-58.2912 0.80896-106.20416-45.78304-107.01824-104.07936a133.81632 133.81632 0 0 1-0.01024-1.4336v-0.03072z" fill="#9f80b9" p-id="5236"></path><path d="M915.62496 94.29504m-71.68 0a71.68 71.68 0 1 0 143.36 0 71.68 71.68 0 1 0-143.36 0Z" fill="#9f80b9" p-id="5237"></path><path d="M915.62496 109.65504m-92.16 0a92.16 92.16 0 1 0 184.32 0 92.16 92.16 0 1 0-184.32 0Z" fill="#9f80b9" p-id="5238"></path></svg>