<?xml version="1.0" encoding="utf-8"?>
<!-- Generator: Adobe Illustrator 23.0.2, SVG Export Plug-In . SVG Version: 6.00 Build 0)  -->
<svg version="1.1" xmlns="http://www.w3.org/2000/svg" xmlns:xlink="http://www.w3.org/1999/xlink" x="0px" y="0px"
	 viewBox="0 0 612 792" style="enable-background:new 0 0 612 792;" xml:space="preserve">
<style type="text/css">
	.st0{fill:#B495C2;}
	.st1{fill:#FFFFFF;}
	.st2{fill:#EAE2EE;}
	.st3{display:none;}
	.st4{display:inline;}
	.st5{fill:#C8C8C8;}
	.st6{fill:#FFCCCC;}
	.st7{fill:#D1CC9C;}
</style>
<g id="图层_2">
	<circle class="st0" cx="306" cy="396" r="340.75"/>
</g>
<g id="图层_1">
	<g>
		<path class="st0" d="M288.95,431.89c19.5-13.05,37.81-25.11,55.84-37.58c2.34-1.62,3.96-5.17,4.66-8.12
			c7.16-29.93,14.09-59.9,20.94-89.9c0.54-2.37,0.78-5.48-0.3-7.44c-10.92-19.65-22.16-39.13-33.72-59.39
			c-17.77,11.88-34.83,22.82-51.27,34.62c-4.29,3.08-8.26,8.43-9.59,13.47c-5.94,22.46-10.97,45.16-16.09,67.83
			c-0.83,3.68-1.71,8.12-0.45,11.39C268.48,381.48,278.53,405.97,288.95,431.89z"/>
		<path class="st0" d="M253.48,428.54c0-7.22-0.36-14.46,0.12-21.64c0.37-5.57-1.49-8.27-6.98-9.6
			c-11.77-2.85-23.32-6.64-35.14-9.23c-3.63-0.79-8.57-0.05-11.67,1.93c-13.25,8.47-26.2,17.44-38.84,26.79
			c-2.61,1.93-4.83,6.22-4.87,9.46c-0.21,16.06,0.08,32.15,0.95,48.19c0.15,2.68,3.56,5.88,6.26,7.53c2.63,1.6,6.47,1.05,9.48,2.23
			c21.99,8.57,39.65,2.3,58.4-11.43C247.45,460.86,259.56,450.22,253.48,428.54z"/>
		<path class="st0" d="M286.95,515.03c1.25,1.87,2.49,3.75,3.74,5.62c8.44,2.17,16.78,5.03,25.35,6.21c4.1,0.56,9.6-0.87,12.81-3.46
			c12.99-10.51,25.23-21.95,37.99-32.75c3.73-3.16,5.13-5.65,2.97-10.7c-6.93-16.21-13.16-32.72-19.77-49.07
			c-0.82-2.04-1.93-5.1-3.49-5.52c-10.5-2.85-21.15-5.12-33.95-8.09c2.01,6.05,2.97,9.43,4.24,12.69
			c5.13,13.07,10.07,26.23,15.67,39.09c2.42,5.57,2.26,9.02-2.86,13.14c-11.49,9.24-22.21,19.43-33.52,28.9
			C293.67,513.13,290.04,513.75,286.95,515.03z"/>
		<path class="st0" d="M354.98,535.57c11.63,2.95,20.71,5.69,29.99,7.35c3.24,0.58,7.87-0.41,10.31-2.51
			c13.42-11.55,26.52-23.5,39.3-35.76c1.88-1.8,2.82-6.46,1.91-8.98c-5.88-16.32-12.29-32.46-18.81-48.54
			c-1-2.47-3.03-5.69-5.23-6.32c-9.96-2.84-20.15-4.88-32.32-7.68c7.31,18.49,13.65,35.19,20.54,51.65c2.51,6,2.08,9.73-3.36,14.14
			C383.37,510.23,370.12,522.36,354.98,535.57z"/>
		<path class="st0" d="M290.2,435.46c-11.59,7.96-22.19,15.24-33.03,22.68c6.52,12.02,12.5,23.03,19.03,35.07
			c8.66-7.53,16.67-14.12,24.12-21.29c1.54-1.48,2.01-5.47,1.24-7.7C298.38,455.09,294.51,446.18,290.2,435.46z"/>
		<path class="st0" d="M200.9,386.69c-8.58-24.29-10.55-48.63-31.86-63.94c-3.28-2.36-5.16-7.85-5.97-12.21
			c-1.36-7.38-5.98-10.9-12.4-11.23c-5.89-0.31-11.01,4.02-8.38,9.81c2.1,4.61,7.95,7.74,12.57,10.88c2.56,1.73,6.66,1.37,8.94,3.29
			c5.5,4.63,11.84,9.23,15.13,15.32c5.91,10.95,9.82,22.98,14.56,34.55c-0.91,0.38-1.81,0.77-2.72,1.15
			c-1.53-1.19-3.21-2.23-4.57-3.59c-11.58-11.58-25.29-17.85-41.87-18.53c-4.64-0.19-9.01-4.4-13.76-5.21
			c-4.3-0.73-9.13,0.12-13.31,1.52c-0.93,0.31-0.96,8.2,0.06,8.57c4.13,1.49,8.84,1.83,13.31,1.7c1.8-0.05,3.8-3.76,5.25-3.47
			c12.61,2.46,26.35,0.36,37.28,9.9C181.27,372.27,190.17,378.44,200.9,386.69z"/>
		<path class="st0" d="M494.66,523.51c0.28-0.63,0.57-1.26,0.85-1.9c-15.64-8.48-31.29-16.96-47.05-25.51
			c-0.85,4.8-1.57,8.87-2.33,13.17C462.34,514.04,478.5,518.77,494.66,523.51z"/>
		<path class="st1" d="M288.89,431.68c-10.44-25.96-20.5-50.5-30.03-75.24c-1.26-3.28-0.38-7.72,0.45-11.41
			c5.13-22.71,10.16-45.45,16.12-67.94c1.34-5.05,5.31-10.41,9.61-13.5c16.47-11.82,33.56-22.77,51.35-34.68
			c11.58,20.29,22.83,39.8,33.77,59.49c1.09,1.96,0.85,5.08,0.3,7.45c-6.85,30.05-13.8,60.08-20.97,90.05
			c-0.71,2.96-2.33,6.51-4.67,8.14C326.76,406.53,308.43,418.61,288.89,431.68z M301.27,391.56c5.85-3.88,11.29-6.94,16.05-10.83
			c3.33-2.73,7.31-6.19,8.28-10.02c5.97-23.47,11.21-47.12,16.53-70.75c0.54-2.38,0.9-5.43-0.13-7.41
			c-4.46-8.57-9.47-16.85-14.47-25.58c-7.85,5.27-14.93,9.46-21.32,14.53c-3.04,2.41-5.93,6.19-6.88,9.86
			c-4.64,18.06-8.67,36.29-12.72,54.5c-0.61,2.72-1.02,5.99-0.09,8.47C291.07,366.58,296.09,378.62,301.27,391.56z"/>
		<path class="st1" d="M253.36,428.32c6.09,21.71-6.04,32.37-22.34,44.3c-18.78,13.74-36.48,20.03-58.5,11.44
			c-3.01-1.17-6.86-0.63-9.49-2.23c-2.71-1.64-6.12-4.85-6.27-7.54c-0.87-16.07-1.16-32.18-0.95-48.27
			c0.04-3.24,2.27-7.55,4.88-9.48c12.67-9.36,25.64-18.35,38.91-26.83c3.11-1.99,8.05-2.73,11.69-1.94
			c11.84,2.59,23.41,6.39,35.2,9.24c5.51,1.33,7.37,4.04,6.99,9.62C253,413.84,253.36,421.09,253.36,428.32z"/>
		<path class="st1" d="M286.88,514.95c3.1-1.28,6.74-1.91,9.19-3.96c11.33-9.48,22.07-19.69,33.58-28.94
			c5.13-4.13,5.29-7.59,2.86-13.17c-5.61-12.89-10.56-26.07-15.69-39.16c-1.28-3.26-2.24-6.65-4.25-12.71
			c12.81,2.97,23.49,5.24,34,8.1c1.57,0.43,2.67,3.49,3.5,5.53c6.62,16.38,12.86,32.91,19.8,49.15c2.16,5.05,0.77,7.55-2.98,10.72
			c-12.78,10.82-25.04,22.28-38.06,32.81c-3.21,2.59-8.72,4.03-12.83,3.47c-8.59-1.18-16.94-4.04-25.39-6.22
			C289.38,518.71,288.13,516.83,286.88,514.95z"/>
		<path class="st1" d="M355.03,535.52c15.16-13.23,28.44-25.38,42.39-36.7c5.45-4.42,5.88-8.16,3.36-14.17
			c-6.9-16.49-13.25-33.21-20.57-51.74c12.19,2.81,22.4,4.84,32.38,7.69c2.2,0.63,4.24,3.85,5.24,6.33
			c6.52,16.11,12.95,32.27,18.84,48.62c0.91,2.52-0.04,7.19-1.92,9c-12.8,12.28-25.92,24.25-39.36,35.82
			c-2.44,2.1-7.08,3.1-10.32,2.51C375.78,541.22,366.68,538.47,355.03,535.52z"/>
		<path class="st2" d="M290.15,435.25c4.32,10.74,8.19,19.66,11.38,28.81c0.78,2.23,0.3,6.23-1.24,7.71
			c-7.46,7.18-15.48,13.78-24.16,21.32c-6.54-12.06-12.53-23.09-19.07-35.13C267.92,450.51,278.54,443.22,290.15,435.25z"/>
		<path class="st2" d="M200.69,386.4c-10.74-8.26-19.66-14.45-27.79-21.54c-10.95-9.55-24.71-7.44-37.34-9.91
			c-1.46-0.28-3.46,3.43-5.26,3.48c-4.48,0.13-9.19-0.22-13.33-1.71c-1.01-0.37-0.99-8.27-0.06-8.58c4.19-1.4,9.03-2.26,13.34-1.52
			c4.76,0.81,9.14,5.03,13.79,5.22c16.61,0.68,30.34,6.96,41.94,18.56c1.36,1.36,3.04,2.41,4.58,3.6c0.91-0.39,1.82-0.77,2.72-1.16
			c-4.75-11.6-8.67-23.64-14.59-34.61c-3.29-6.09-9.64-10.71-15.15-15.34c-2.29-1.92-6.39-1.56-8.95-3.3
			c-4.63-3.14-10.49-6.28-12.59-10.89c-2.64-5.79,2.49-10.13,8.39-9.82c6.43,0.33,11.05,3.86,12.42,11.25
			c0.81,4.37,2.69,9.87,5.98,12.23C190.13,337.69,192.1,362.07,200.69,386.4z"/>
		<path class="st2" d="M494.94,523.45c-16.18-4.75-32.37-9.49-48.6-14.25c0.76-4.31,1.48-8.39,2.33-13.2
			c15.79,8.56,31.46,17.05,47.13,25.55C495.5,522.18,495.22,522.81,494.94,523.45z"/>
		<path class="st2" d="M301.27,391.56c-5.18-12.94-10.2-24.98-14.74-37.21c-0.92-2.49-0.51-5.75,0.09-8.47
			c4.05-18.21,8.08-36.43,12.72-54.5c0.94-3.68,3.84-7.45,6.88-9.86c6.39-5.07,13.46-9.27,21.32-14.53
			c5,8.72,10.01,17.01,14.47,25.58c1.03,1.97,0.66,5.03,0.13,7.41c-5.33,23.63-10.57,47.28-16.53,70.75
			c-0.97,3.83-4.95,7.29-8.28,10.02C312.56,384.62,307.12,387.68,301.27,391.56z"/>
	</g>
</g>
<g id="图层_3">
</g>
<g id="图层_4" class="st3">
	<g class="st4">
		<path class="st5" d="M492.71,418.49c0-23.05,0-44.75,0-66.88c-3.15-0.23-6.08-0.44-9.18-0.67c1.54-3.17,16.28-4.18,23.83-0.9
			c-1.4,0.41-2.89,1.34-4.2,1.14c-5.73-0.9-6.67,1.85-6.6,6.89c0.25,19.04,0.27,38.09-0.01,57.14c-0.07,4.95,1.41,6.83,6.28,6.16
			c1.39-0.19,2.86,0.22,4.37,0.37c-0.12,1.05,0.02,1.78-0.25,1.99c-3.55,2.77-14.9,0.96-17.35-2.78
			c-13.53-20.59-27.03-41.2-40.55-61.8c-0.91-1.39-1.91-2.73-3.66-5.23c-0.15,2.81-0.3,4.37-0.3,5.92
			c-0.02,18.2,0.14,36.39-0.11,54.59c-0.07,5.03,0.83,7.91,6.59,6.94c1.01-0.17,2.15,0.4,3.38,0.66c-2.2,3.32-19.62,3.9-24.1-0.12
			c2.24-0.2,4.49-0.61,6.73-0.56c3.02,0.07,4.19-1.01,4.17-4.16c-0.11-20.58-0.12-41.15,0.01-61.73c0.02-3.47-1.26-4.49-4.49-4.25
			c-2.06,0.16-4.16-0.17-6.24-0.29c-0.1-0.51-0.19-1.02-0.29-1.52c0.99-0.45,1.95-1.17,2.98-1.31c8.1-1.15,13.89,0.64,18.71,8.72
			c11.57,19.39,24.52,37.96,36.92,56.85C490.18,414.93,491.07,416.15,492.71,418.49z"/>
		<path class="st6" d="M154.03,386.89c4-3.64,20.88-3.92,25.12-0.09c-3.37,0.42-6.74,0.84-11.19,1.4c0,12.02,0,24.2,0,36.37
			c-0.71,0.06-1.42,0.12-2.13,0.18c-0.52-2.68-1.04-5.36-1.65-8.47c-1.52,0.96-2.82,1.65-3.97,2.54
			c-19.69,15.23-50.95,5.38-54.99-25.31c-2.07-15.74,1.06-30.28,14.77-40.49c11.52-8.58,27.46-8.19,39.97,0.64
			c1.22,0.87,2.44,1.74,4.3,3.07c0.46-3.23,0.83-5.87,1.24-8.79c3.51,2.38,4.02,20.02,0.52,24.98c-0.49-2.4-0.63-4.08-1.2-5.59
			c-1.01-2.67-1.64-5.96-3.58-7.74c-9.8-9-21.37-12.24-33.85-6.8c-12.63,5.51-18.4,16.64-18.85,29.77
			c-0.25,7.37,0.95,15.49,3.97,22.16c9.08,20.04,35.27,23.56,50.13,7.33c1.23-1.34,2-3.54,2.12-5.39c0.29-4.74-0.1-9.52,0.16-14.27
			c0.22-3.9-1.36-5.18-5.06-4.85C158.31,387.67,156.71,387.21,154.03,386.89z"/>
		<path class="st1" d="M368.51,350.39c-1.73,0.3-3.49,0.93-5.19,0.82c-3.31-0.21-4.5,1-4.47,4.35c0.14,14.28-0.14,28.56,0.17,42.84
			c0.3,14.16,10.35,23.74,24.48,23.94c13.99,0.2,24.8-9.26,25.29-23.17c0.52-14.77,0.12-29.58,0.2-44.36
			c0.01-2.62-0.97-3.66-3.61-3.58c-2.03,0.07-4.08-0.3-6.75-0.53c2.98-2.96,17.82-3.64,24.67-0.71c-1.4,0.43-2.79,1.16-4.21,1.23
			c-6.75,0.33-6.75,0.27-6.75,7.1c0,13.09,0.07,26.18-0.03,39.27c-0.11,13.04-7.2,23.02-18.83,26.83
			c-12.08,3.96-25.43-0.02-32.96-9.89c-4.12-5.39-5.23-11.71-5.27-18.27c-0.07-12.92-0.02-25.84-0.02-38.76c0-1.84,0-3.67,0-5.95
			c-3.79-0.2-7.06-0.37-10.53-0.55c1.57-3.23,16.25-4.24,23.5-2.09C368.29,349.41,368.4,349.9,368.51,350.39z"/>
		<path class="st1" d="M195.04,351.54c-3.71-0.21-6.98-0.4-10.25-0.59c-0.12-0.47-0.24-0.94-0.36-1.41c0.95-0.49,1.9-1.38,2.86-1.4
			c6.11-0.13,12.23-0.14,18.35-0.01c0.93,0.02,1.85,0.91,2.77,1.4c-1.01,0.58-2.13,1.79-3.03,1.65c-5.75-0.92-6.66,1.9-6.54,6.9
			c0.3,13.08,0.02,26.17,0.13,39.25c0.12,14.88,10.38,25.06,25.03,25.02c14.67-0.04,24.81-10.19,24.9-25.1
			c0.09-13.76,0.03-27.53,0.01-41.29c0-1.33-0.18-2.65-0.3-4.32c-3.12-0.24-6.06-0.46-9.11-0.69c1.35-3.11,14.94-4.15,23.45-2.18
			c0.12,0.47,0.25,0.95,0.37,1.42c-1.85,0.37-3.74,1.18-5.54,1.01c-4.35-0.41-5.51,1.37-5.45,5.53c0.2,13.76,0.23,27.53-0.01,41.29
			c-0.22,12.8-6.94,22.16-18.23,26.17c-11.61,4.13-24.52,0.8-32.48-8.37c-4.34-5-6.05-10.94-6.1-17.4
			c-0.09-13.59-0.05-27.19-0.1-40.78C195.4,355.64,195.17,353.65,195.04,351.54z"/>
		<path class="st7" d="M331.68,356.72c0.62-3.54,1.07-6.14,1.52-8.73c0.49,0.01,0.97,0.01,1.46,0.02c0.36,0.96,1.01,1.92,1.03,2.89
			c0.1,5.95,0.14,11.9-0.02,17.85c-0.03,1.08-1.04,2.13-1.59,3.19c-0.57-1.06-1.73-2.18-1.62-3.15c0.53-4.53-1.28-7.55-4.77-10.39
			c-18.95-15.4-43.9-7.76-50.33,15.85c-3.83,14.06-2.3,27.45,8.21,38.49c10.89,11.44,31.32,12.82,43.96,3.34
			c1.09-0.81,2-1.91,3.17-2.54c1.02-0.54,2.29-0.61,3.45-0.89c-0.4,1.11-0.49,2.56-1.26,3.27c-8.99,8.24-19.79,11.01-31.63,9.44
			c-15.04-1.99-24.54-10.94-29.05-25.1c-3.52-11.06-2.9-22.19,1.67-32.88c8.68-20.32,32.87-26.81,51.25-13.92
			C328.5,354.39,329.83,355.38,331.68,356.72z"/>
	</g>
</g>
</svg>
