<svg version="1.1" id="图层_1" xmlns="http://www.w3.org/2000/svg" xmlns:xlink="http://www.w3.org/1999/xlink" x="0px" y="0px"
	 viewBox="0 0 60 60">
<style type="text/css">
	.st0{fill:rgb(255, 187, 187);}
	.st1{fill:#534741;}
	.st2{fill:rgb(248, 123, 127);}
	.st3{fill:#FFFFFF;}
</style>
<circle class="st0" cx="30" cy="29" r="22"/>
<g>
	<path class="st1" d="M16.3,29.4l-0.5-0.9l6.7-4c0.9-0.5,0.7-1.8-0.3-2.1l-7.3-2l0.3-1l9.6,2.6c1,0.3,1.1,1.6,0.3,2.1L16.3,29.4z"/>
</g>
<g>
	<path class="st1" d="M41.1,29.4l0.5-0.9l-6.7-4c-0.9-0.5-0.7-1.8,0.3-2.1l7.3-2l-0.3-1l-9.6,2.6c-1,0.3-1.1,1.6-0.3,2.1L41.1,29.4z
		"/>
</g>
<path class="st2" d="M21.8,32h14c0,0,1.1,9-7,9C19.8,41,21.8,32,21.8,32z"/>
<path class="st3" d="M29.2,36h-1c-0.6,0-1-0.4-1-1v-3h3v3C30.2,35.6,29.8,36,29.2,36z"/>
</svg>
